<?xml version="1.0" ?><svg width="32px" height="32px" viewBox="0 0 32 32" data-name="Layer 1" id="Layer_1" xmlns="http://www.w3.org/2000/svg"><title/><path d="M29.62,2.22A1,1,0,0,0,28.77,2l-17,4A1,1,0,0,0,11,7V22.06a6.31,6.31,0,0,0-3-.73c-2.8,0-5,1.61-5,3.67s2.2,3.67,5,3.67,5-1.61,5-3.67V12.79L28,9.26v12.8a6.31,6.31,0,0,0-3-.73c-2.8,0-5,1.61-5,3.67s2.2,3.67,5,3.67,5-1.61,5-3.67V3A1,1,0,0,0,29.62,2.22ZM8,26.67c-1.77,0-3-.88-3-1.67s1.23-1.67,3-1.67,3,.88,3,1.67S9.77,26.67,8,26.67Zm5-15.93V7.79L28,4.26v3ZM25,26.67c-1.77,0-3-.88-3-1.67s1.23-1.67,3-1.67,3,.88,3,1.67S26.77,26.67,25,26.67Z"/></svg>